<?xml version="1.0" encoding="UTF-8" standalone="no"?>
<!-- Created with Inkscape (http://www.inkscape.org/) -->

<svg
   xmlns:dc="http://purl.org/dc/elements/1.1/"
   xmlns:cc="http://creativecommons.org/ns#"
   xmlns:rdf="http://www.w3.org/1999/02/22-rdf-syntax-ns#"
   xmlns:svg="http://www.w3.org/2000/svg"
   xmlns="http://www.w3.org/2000/svg"
   xmlns:sodipodi="http://sodipodi.sourceforge.net/DTD/sodipodi-0.dtd"
   xmlns:inkscape="http://www.inkscape.org/namespaces/inkscape"
   width="600.10876"
   height="693.44727"
   viewBox="0 0 158.77877 183.47459"
   version="1.1"
   id="svg8"
   inkscape:version="0.92.4 (5da689c313, 2019-01-14)"
   sodipodi:docname="user_female_black.svg">
  <defs
     id="defs2">
    <clipPath
       clipPathUnits="userSpaceOnUse"
       id="clipPath830">
      <rect
         style="opacity:1;fill:#000000;fill-opacity:1;stroke:#ffffff;stroke-width:0.52916664;stroke-linecap:round;stroke-linejoin:round;stroke-miterlimit:4;stroke-dasharray:none;stroke-dashoffset:20;stroke-opacity:1;paint-order:normal"
         id="rect832"
         width="197.30357"
         height="210.91072"
         x="6.8035712"
         y="64.166664" />
    </clipPath>
  </defs>
  <sodipodi:namedview
     id="base"
     pagecolor="#ffffff"
     bordercolor="#666666"
     borderopacity="1.0"
     inkscape:pageopacity="0.0"
     inkscape:pageshadow="2"
     inkscape:zoom="0.7"
     inkscape:cx="360.21275"
     inkscape:cy="434.56762"
     inkscape:document-units="px"
     inkscape:current-layer="layer7"
     showgrid="false"
     units="px"
     showguides="false"
     inkscape:guide-bbox="true"
     inkscape:object-paths="true"
     inkscape:snap-intersection-paths="true"
     inkscape:snap-smooth-nodes="true"
     inkscape:snap-midpoints="true"
     inkscape:snap-global="false"
     fit-margin-top="0"
     fit-margin-left="0"
     fit-margin-right="0"
     fit-margin-bottom="0"
     inkscape:window-width="1920"
     inkscape:window-height="1057"
     inkscape:window-x="-8"
     inkscape:window-y="-8"
     inkscape:window-maximized="1"
     inkscape:showpageshadow="false"
     inkscape:snap-page="true">
    <sodipodi:guide
       position="79.38939,183.47455"
       orientation="1,0"
       id="guide834"
       inkscape:locked="false"
       inkscape:label=""
       inkscape:color="rgb(0,0,255)" />
  </sodipodi:namedview>
  <metadata
     id="metadata5">
    <rdf:RDF>
      <cc:Work
         rdf:about="">
        <dc:format>image/svg+xml</dc:format>
        <dc:type
           rdf:resource="http://purl.org/dc/dcmitype/StillImage" />
        <dc:title></dc:title>
      </cc:Work>
    </rdf:RDF>
  </metadata>
  <g
     inkscape:groupmode="layer"
     id="layer7"
     inkscape:label="Outline">
    <path
       style="fill:#1a1a1a;fill-opacity:1;stroke:none;stroke-width:0.99999994px;stroke-linecap:butt;stroke-linejoin:miter;stroke-opacity:1"
       d="m 300.05469,0 c -157.5079,0 -165.81112,158.68315 -149.82031,272.54883 6.30093,44.86699 2.14705,69.8095 -34.52526,103.75346 29.48611,-0.43886 48.74341,-4.71285 71.82018,-14.19096 -5.45262,11.71956 -36.79582,31.10669 -60.22343,36.91349 40.79014,8.49917 172.74882,14.30458 172.74882,-52.90568 0,67.21026 127.41295,66.70816 168.20312,58.20898 -23.42763,-5.80679 -50.22512,-30.49723 -55.67773,-42.21679 16.83496,10.15259 51.88849,21.73586 72.29492,17.60937 -30.14755,-9.48956 -48.31451,-28.67062 -60.93359,-47.05078 19.45186,12.51587 51.0983,27.21093 77.3789,26.96485 0,0 -59.22581,-43.32863 -51.44531,-87.08594 C 470.00442,159.34148 457.56261,0 300.05469,0 Z"
       transform="scale(0.26458333)"
       id="path836"
       inkscape:connector-curvature="0"
       sodipodi:nodetypes="sscccccccccss" />
    <path
       style="fill:#734e34;fill-opacity:1;stroke:none;stroke-width:0.99999994px;stroke-linecap:butt;stroke-linejoin:miter;stroke-opacity:1"
       d="m 225.15039,277.76953 c 2.94825,24.60487 12.69256,63.97887 8.89649,91.07813 -3.05416,21.80289 -20.09687,28.45459 -26.43946,31.88672 6.09278,51.12947 8.88365,69.71484 26.20508,87.90429 18.24525,3.63596 34.70368,19.50667 66.24219,19.02289 31.53851,0.48378 47.99693,-15.38694 66.24219,-19.02289 17.32144,-18.18947 20.11229,-36.77481 26.20507,-87.90429 -6.34261,-3.43212 -23.38529,-10.08383 -26.43945,-31.88672 -3.79604,-27.09927 5.94826,-66.47326 8.89648,-91.07813 h -74.90429 z"
       transform="scale(0.26458333)"
       id="path861"
       inkscape:connector-curvature="0"
       sodipodi:nodetypes="csccccccccc" />
    <path
       style="fill:#68422c;fill-opacity:1;stroke:none;stroke-width:0.99999994px;stroke-linecap:butt;stroke-linejoin:miter;stroke-opacity:1"
       d="M 167.75977 160.01562 C 160.02576 160.34899 157.50305 176.6142 159.87695 190.85742 C 167.53255 236.79051 186.92094 240.92424 197.55469 235.14258 L 187.37695 180.5 C 178.91691 165.35044 172.40017 159.8156 167.75977 160.01562 z M 432.34961 160.01562 C 427.70922 159.8156 421.19244 165.35044 412.73242 180.5 L 402.55469 235.14258 C 413.18843 240.92424 432.5768 236.79051 440.23242 190.85742 C 442.60631 176.6142 440.08362 160.34898 432.34961 160.01562 z "
       transform="scale(0.26458333)"
       id="path855" />
    <path
       style="fill:#802020;fill-opacity:1;stroke:none;stroke-width:0.99999994px;stroke-linecap:butt;stroke-linejoin:miter;stroke-opacity:1"
       d="M 207.60742 400.73438 C 182.19547 409.81154 143.75002 412.79933 111.12695 418.17969 C 69.347734 425.07013 35.735232 418.53957 8.5859375 541.92383 C 7.0676675 553.27704 -0.309475 617.61989 0 632.83789 C 0.91935901 678.04614 26.039143 693.44727 64.144531 693.44727 L 300.05469 693.44727 L 535.96484 693.44727 C 574.07023 693.44727 599.19004 678.04614 600.10938 632.83789 C 600.41884 617.61992 593.04171 553.27704 591.52344 541.92383 C 564.37415 418.53975 530.76162 425.07014 488.98242 418.17969 C 456.35935 412.79934 417.91391 409.81155 392.50195 400.73438 C 385.45752 445.30177 317.68008 494.44727 300.05469 494.44727 C 282.4293 494.44727 214.65185 445.30177 207.60742 400.73438 z "
       transform="scale(0.26458333)"
       id="path864" />
    <path
       style="fill:#865b39;fill-opacity:1;stroke:none;stroke-width:0.99999994px;stroke-linecap:butt;stroke-linejoin:miter;stroke-opacity:1"
       d="m 300.05469,69.785156 c -28.38319,0 -29.32382,49.523494 -72.19207,77.723754 9.59545,-21.63129 11.44138,-28.82401 8.01631,-42.35758 -20.56423,60.20774 -54.32658,37.8791 -55.34674,56.11822 -1.02017,18.23912 1.09877,38.47272 5.40922,60.00389 12.92185,64.54609 52.90181,141.01172 114.11328,141.01172 61.21147,0 101.19141,-76.46563 114.11328,-141.01172 17.24179,-86.12466 -0.5805,-151.488284 -114.11328,-151.488284 z"
       transform="scale(0.26458333)"
       id="path858"
       inkscape:connector-curvature="0"
       sodipodi:nodetypes="sccsssss" />
  </g>
</svg>
